<svg xmlns="http://www.w3.org/2000/svg" width="592" height="320">
    <style>line, path, circle,rect,polygon {
                          stroke: black;
                          stroke-width: 2;
                          stroke-opacity: 1;
                          fill-opacity: 1;
                          stroke-linecap: round;
                          stroke-linejoin: miter;
                        }

                    text {
                        /* This fix the spacing bug in svg text*/
                        white-space: pre;
                        fill: black;
                        }
                        rect.backdrop{
                            stroke: none;
                            fill: white;
                        }
                        .broken{
                            stroke-dasharray: 8;
                        }
                        .filled{
                            fill: black;
                        }
                        .bg_filled{
                            fill: white;
                        }
                        .nofill{
                            fill: white;
                        }

                        text {
                         font-family: monospace;
                         font-size: 14px;
                        }

                        .end_marked_arrow{
                            marker-end: url(#arrow);
                         }
                        .start_marked_arrow{
                            marker-start: url(#arrow);
                         }

                        .end_marked_diamond{
                            marker-end: url(#diamond);
                         }
                        .start_marked_diamond{
                            marker-start: url(#diamond);
                         }

                        .end_marked_circle{
                            marker-end: url(#circle);
                         }
                        .start_marked_circle{
                            marker-start: url(#circle);
                         }

                        .end_marked_open_circle{
                            marker-end: url(#open_circle);
                         }
                        .start_marked_open_circle{
                            marker-start: url(#open_circle);
                         }

                        .end_marked_big_open_circle{
                            marker-end: url(#big_open_circle);
                         }
                        .start_marked_big_open_circle{
                            marker-start: url(#big_open_circle);
                         }

                         
                        </style>
    <defs>
        <marker id="arrow" viewBox="-2 -2 8 8" refX="4" refY="2" markerWidth="7" markerHeight="7" orient="auto-start-reverse">
            <polygon points="0,0 0,4 4,2 0,0"></polygon>
        </marker>
        <marker id="diamond" viewBox="-2 -2 8 8" refX="4" refY="2" markerWidth="7" markerHeight="7" orient="auto-start-reverse">
            <polygon points="0,2 2,0 4,2 2,4 0,2"></polygon>
        </marker>
        <marker id="circle" viewBox="0 0 8 8" refX="4" refY="4" markerWidth="7" markerHeight="7" orient="auto-start-reverse">
            <circle cx="4" cy="4" r="2" class="filled"></circle>
        </marker>
        <marker id="open_circle" viewBox="0 0 8 8" refX="4" refY="4" markerWidth="7" markerHeight="7" orient="auto-start-reverse">
            <circle cx="4" cy="4" r="2" class="bg_filled"></circle>
        </marker>
        <marker id="big_open_circle" viewBox="0 0 8 8" refX="4" refY="4" markerWidth="7" markerHeight="7" orient="auto-start-reverse">
            <circle cx="4" cy="4" r="3" class="bg_filled"></circle>
        </marker>
    </defs>
    <rect x="292" y="168" width="72" height="32" class="solid nofill" rx="0"></rect>
    <text x="298" y="188" >LiveView</text>
    <text x="50" y="12" >Raw</text>
    <text x="306" y="12" >Raw</text>
    <text x="130" y="28" >►</text>
    <text x="162" y="28" >BRaw</text>
    <text x="482" y="60" >▼</text>
    <text x="226" y="76" >sRGB</text>
    <text x="546" y="76" >ACES</text>
    <text x="74" y="92" >sRGB</text>
    <text x="218" y="92" >Linear</text>
    <text x="458" y="92" >Davinci</text>
    <text x="578" y="92" >►</text>
    <text x="10" y="108" >BMPCC</text>
    <text x="458" y="108" >Resolve</text>
    <text x="482" y="156" >▲</text>
    <text x="170" y="188" >sRGB</text>
    <text x="170" y="204" >Linear</text>
    <text x="162" y="236" >▼</text>
    <text x="234" y="252" >ACEScg</text>
    <text x="386" y="252" >ACEScg</text>
    <text x="122" y="268" >Movie</text>
    <text x="170" y="268" >Render</text>
    <text x="298" y="268" >►</text>
    <text x="330" y="268" >Nuke</text>
    <text x="146" y="284" >Queue</text>
    <g>
        <line x1="140" y1="8" x2="196" y2="8" class="solid"></line>
        <line x1="140" y1="8" x2="140" y2="40" class="solid"></line>
        <line x1="196" y1="8" x2="196" y2="40" class="solid"></line>
        <line x1="196" y1="24" x2="484" y2="24" class="solid"></line>
        <line x1="484" y1="24" x2="484" y2="48" class="solid"></line>
        <line x1="140" y1="40" x2="196" y2="40" class="solid"></line>
    </g>
    <g>
        <line x1="28" y1="24" x2="128" y2="24" class="solid"></line>
        <line x1="28" y1="24" x2="28" y2="88" class="solid"></line>
        <line x1="4" y1="88" x2="52" y2="88" class="solid"></line>
        <line x1="4" y1="88" x2="4" y2="120" class="solid"></line>
        <line x1="52" y1="88" x2="52" y2="120" class="solid"></line>
        <line x1="52" y1="104" x2="128" y2="104" class="solid"></line>
        <line x1="4" y1="120" x2="52" y2="120" class="solid"></line>
    </g>
    <g>
        <line x1="452" y1="72" x2="516" y2="72" class="solid"></line>
        <line x1="452" y1="72" x2="452" y2="136" class="solid"></line>
        <line x1="516" y1="72" x2="516" y2="136" class="solid"></line>
        <line x1="516" y1="88" x2="576" y2="88" class="solid"></line>
        <line x1="452" y1="136" x2="516" y2="136" class="solid"></line>
    </g>
    <g>
        <line x1="140" y1="88" x2="196" y2="88" class="solid"></line>
        <line x1="140" y1="88" x2="140" y2="120" class="solid"></line>
        <line x1="196" y1="88" x2="196" y2="120" class="solid"></line>
        <line x1="196" y1="104" x2="280" y2="104" class="solid"></line>
        <line x1="140" y1="120" x2="196" y2="120" class="solid"></line>
        <line x1="164" y1="120" x2="164" y2="224" class="solid"></line>
    </g>
    <g>
        <line x1="292" y1="88" x2="372" y2="88" class="solid"></line>
        <line x1="292" y1="88" x2="292" y2="120" class="solid"></line>
        <line x1="372" y1="88" x2="372" y2="120" class="solid"></line>
        <line x1="292" y1="120" x2="372" y2="120" class="solid"></line>
        <line x1="332" y1="120" x2="332" y2="144" class="solid"></line>
    </g>
    <g>
        <text x="130" y="108">►</text>
        <text x="146" y="108">Unreal</text>
    </g>
    <g>
        <text x="282" y="108">►</text>
        <text x="298" y="108">Composure</text>
    </g>
    <g>
        <text x="330" y="156">▼</text>
        <text x="346" y="156">sRGB</text>
    </g>
    <g>
        <line x1="484" y1="160" x2="484" y2="264" class="solid"></line>
        <line x1="308" y1="248" x2="364" y2="248" class="solid"></line>
        <line x1="308" y1="248" x2="308" y2="280" class="solid"></line>
        <line x1="364" y1="248" x2="364" y2="280" class="solid"></line>
        <line x1="364" y1="264" x2="484" y2="264" class="solid"></line>
        <line x1="308" y1="280" x2="364" y2="280" class="solid"></line>
    </g>
    <g>
        <line x1="116" y1="248" x2="220" y2="248" class="solid"></line>
        <line x1="116" y1="248" x2="116" y2="296" class="solid"></line>
        <line x1="220" y1="248" x2="220" y2="296" class="solid"></line>
        <line x1="220" y1="264" x2="296" y2="264" class="solid"></line>
        <line x1="116" y1="296" x2="220" y2="296" class="solid"></line>
    </g>
</svg>