<svg xmlns="http://www.w3.org/2000/svg" width="520" height="304">
    <style>line, path, circle,rect,polygon {
                          stroke: black;
                          stroke-width: 2;
                          stroke-opacity: 1;
                          fill-opacity: 1;
                          stroke-linecap: round;
                          stroke-linejoin: miter;
                        }

                    text {
                        /* This fix the spacing bug in svg text*/
                        white-space: pre;
                        fill: black;
                        }
                        rect.backdrop{
                            stroke: none;
                            fill: white;
                        }
                        .broken{
                            stroke-dasharray: 8;
                        }
                        .filled{
                            fill: black;
                        }
                        .bg_filled{
                            fill: white;
                        }
                        .nofill{
                            fill: white;
                        }

                        text {
                         font-family: monospace;
                         font-size: 14px;
                        }

                        .end_marked_arrow{
                            marker-end: url(#arrow);
                         }
                        .start_marked_arrow{
                            marker-start: url(#arrow);
                         }

                        .end_marked_diamond{
                            marker-end: url(#diamond);
                         }
                        .start_marked_diamond{
                            marker-start: url(#diamond);
                         }

                        .end_marked_circle{
                            marker-end: url(#circle);
                         }
                        .start_marked_circle{
                            marker-start: url(#circle);
                         }

                        .end_marked_open_circle{
                            marker-end: url(#open_circle);
                         }
                        .start_marked_open_circle{
                            marker-start: url(#open_circle);
                         }

                        .end_marked_big_open_circle{
                            marker-end: url(#big_open_circle);
                         }
                        .start_marked_big_open_circle{
                            marker-start: url(#big_open_circle);
                         }

                         
                        </style>
    <defs>
        <marker id="arrow" viewBox="-2 -2 8 8" refX="4" refY="2" markerWidth="7" markerHeight="7" orient="auto-start-reverse">
            <polygon points="0,0 0,4 4,2 0,0"></polygon>
        </marker>
        <marker id="diamond" viewBox="-2 -2 8 8" refX="4" refY="2" markerWidth="7" markerHeight="7" orient="auto-start-reverse">
            <polygon points="0,2 2,0 4,2 2,4 0,2"></polygon>
        </marker>
        <marker id="circle" viewBox="0 0 8 8" refX="4" refY="4" markerWidth="7" markerHeight="7" orient="auto-start-reverse">
            <circle cx="4" cy="4" r="2" class="filled"></circle>
        </marker>
        <marker id="open_circle" viewBox="0 0 8 8" refX="4" refY="4" markerWidth="7" markerHeight="7" orient="auto-start-reverse">
            <circle cx="4" cy="4" r="2" class="bg_filled"></circle>
        </marker>
        <marker id="big_open_circle" viewBox="0 0 8 8" refX="4" refY="4" markerWidth="7" markerHeight="7" orient="auto-start-reverse">
            <circle cx="4" cy="4" r="3" class="bg_filled"></circle>
        </marker>
    </defs>
    <rect x="188" y="8" width="72" height="48" class="solid nofill" rx="0"></rect>
    <text x="194" y="28" >External</text>
    <text x="210" y="44" >SSD</text>
    <rect x="420" y="216" width="88" height="64" class="solid nofill" rx="0"></rect>
    <text x="434" y="252" >Decklink</text>
    <text x="74" y="12" >Blackmagic</text>
    <text x="106" y="28" >Raw</text>
    <path d="M 88,32 A 16,16 0,0,0 88,48" class="nofill"></path>
    <text x="90" y="44" >USB</text>
    <text x="122" y="44" >C</text>
    <path d="M 128,32 A 16,16 0,0,1 128,48" class="nofill"></path>
    <line x1="136" y1="40" x2="176" y2="40" class="solid"></line>
    <text x="178" y="44" >►</text>
    <text x="82" y="236" >sRGB</text>
    <text x="122" y="236" >Linear</text>
    <text x="322" y="236" >sRGB</text>
    <text x="362" y="236" >Linear</text>
    <path d="M 104,240 A 16,16 0,0,0 104,256" class="nofill"></path>
    <text x="106" y="252" >HDMI</text>
    <path d="M 136,240 A 16,16 0,0,1 136,256" class="nofill"></path>
    <line x1="144" y1="248" x2="184" y2="248" class="solid"></line>
    <text x="186" y="252" >►</text>
    <path d="M 344,240 A 16,16 0,0,0 344,256" class="nofill"></path>
    <text x="346" y="252" >SDI</text>
    <path d="M 368,240 A 16,16 0,0,1 368,256" class="nofill"></path>
    <line x1="376" y1="248" x2="408" y2="248" class="solid"></line>
    <text x="410" y="252" >►</text>
    <text x="34" y="140" >Camera</text>
    <text x="210" y="252" >HDMI</text>
    <text x="250" y="252" >to</text>
    <text x="274" y="252" >SDI</text>
    <g>
        <line x1="52" y1="40" x2="80" y2="40" class="solid"></line>
        <line x1="52" y1="40" x2="52" y2="104" class="solid"></line>
        <line x1="12" y1="104" x2="100" y2="104" class="solid"></line>
        <line x1="12" y1="104" x2="12" y2="168" class="solid"></line>
        <line x1="100" y1="104" x2="100" y2="168" class="solid"></line>
        <line x1="12" y1="168" x2="100" y2="168" class="solid"></line>
        <line x1="52" y1="168" x2="52" y2="248" class="solid"></line>
        <line x1="52" y1="248" x2="96" y2="248" class="solid"></line>
    </g>
    <g>
        <line x1="196" y1="216" x2="308" y2="216" class="solid"></line>
        <line x1="196" y1="216" x2="196" y2="280" class="solid"></line>
        <line x1="308" y1="216" x2="308" y2="280" class="solid"></line>
        <line x1="308" y1="248" x2="336" y2="248" class="solid"></line>
        <line x1="196" y1="280" x2="308" y2="280" class="solid"></line>
    </g>
</svg>