<svg xmlns="http://www.w3.org/2000/svg" width="808" height="384">
    <style>line, path, circle,rect,polygon {
                          stroke: black;
                          stroke-width: 2;
                          stroke-opacity: 1;
                          fill-opacity: 1;
                          stroke-linecap: round;
                          stroke-linejoin: miter;
                        }

                    text {
                        /* This fix the spacing bug in svg text*/
                        white-space: pre;
                        fill: black;
                        }
                        rect.backdrop{
                            stroke: none;
                            fill: white;
                        }
                        .broken{
                            stroke-dasharray: 8;
                        }
                        .filled{
                            fill: black;
                        }
                        .bg_filled{
                            fill: white;
                        }
                        .nofill{
                            fill: white;
                        }

                        text {
                         font-family: monospace;
                         font-size: 14px;
                        }

                        .end_marked_arrow{
                            marker-end: url(#arrow);
                         }
                        .start_marked_arrow{
                            marker-start: url(#arrow);
                         }

                        .end_marked_diamond{
                            marker-end: url(#diamond);
                         }
                        .start_marked_diamond{
                            marker-start: url(#diamond);
                         }

                        .end_marked_circle{
                            marker-end: url(#circle);
                         }
                        .start_marked_circle{
                            marker-start: url(#circle);
                         }

                        .end_marked_open_circle{
                            marker-end: url(#open_circle);
                         }
                        .start_marked_open_circle{
                            marker-start: url(#open_circle);
                         }

                        .end_marked_big_open_circle{
                            marker-end: url(#big_open_circle);
                         }
                        .start_marked_big_open_circle{
                            marker-start: url(#big_open_circle);
                         }

                         
                        </style>
    <defs>
        <marker id="arrow" viewBox="-2 -2 8 8" refX="4" refY="2" markerWidth="7" markerHeight="7" orient="auto-start-reverse">
            <polygon points="0,0 0,4 4,2 0,0"></polygon>
        </marker>
        <marker id="diamond" viewBox="-2 -2 8 8" refX="4" refY="2" markerWidth="7" markerHeight="7" orient="auto-start-reverse">
            <polygon points="0,2 2,0 4,2 2,4 0,2"></polygon>
        </marker>
        <marker id="circle" viewBox="0 0 8 8" refX="4" refY="4" markerWidth="7" markerHeight="7" orient="auto-start-reverse">
            <circle cx="4" cy="4" r="2" class="filled"></circle>
        </marker>
        <marker id="open_circle" viewBox="0 0 8 8" refX="4" refY="4" markerWidth="7" markerHeight="7" orient="auto-start-reverse">
            <circle cx="4" cy="4" r="2" class="bg_filled"></circle>
        </marker>
        <marker id="big_open_circle" viewBox="0 0 8 8" refX="4" refY="4" markerWidth="7" markerHeight="7" orient="auto-start-reverse">
            <circle cx="4" cy="4" r="3" class="bg_filled"></circle>
        </marker>
    </defs>
    <rect x="4" y="104" width="96" height="208" class="solid nofill" rx="0"></rect>
    <text x="50" y="188" >Out</text>
    <text x="50" y="204" >HDMI</text>
    <text x="674" y="12" >Decklink</text>
    <text x="746" y="12" >8K</text>
    <text x="770" y="12" >Pro</text>
    <text x="682" y="60" >SYNC</text>
    <text x="18" y="92" >BMPCC</text>
    <text x="218" y="124" >Microconverter</text>
    <text x="218" y="140" >Blackmagic</text>
    <text x="306" y="140" >HDMI</text>
    <text x="346" y="140" >to</text>
    <text x="370" y="140" >SDI</text>
    <text x="402" y="140" >3G</text>
    <text x="634" y="140" >►</text>
    <text x="682" y="140" >SDI</text>
    <text x="498" y="172" >SDI</text>
    <text x="682" y="204" >SDI</text>
    <text x="138" y="220" >HDMI</text>
    <text x="426" y="220" >SDI</text>
    <text x="458" y="220" >Out</text>
    <text x="202" y="268" >►</text>
    <text x="682" y="268" >SDI</text>
    <text x="682" y="332" >SDI</text>
    <text x="714" y="140" >1</text>
    <text x="714" y="204" >2</text>
    <text x="242" y="252" >HDMI</text>
    <text x="242" y="268" >In</text>
    <text x="714" y="268" >3</text>
    <text x="714" y="332" >4</text>
    <g>
        <line x1="676" y1="24" x2="796" y2="24" class="solid"></line>
        <line x1="676" y1="24" x2="676" y2="360" class="solid"></line>
        <line x1="796" y1="24" x2="796" y2="360" class="solid"></line>
        <line x1="644" y1="40" x2="676" y2="40" class="solid"></line>
        <line x1="644" y1="40" x2="644" y2="72" class="solid"></line>
        <line x1="644" y1="72" x2="676" y2="72" class="solid"></line>
        <line x1="644" y1="120" x2="676" y2="120" class="solid"></line>
        <line x1="644" y1="120" x2="644" y2="152" class="solid"></line>
        <line x1="644" y1="152" x2="676" y2="152" class="solid"></line>
        <line x1="644" y1="184" x2="676" y2="184" class="solid"></line>
        <line x1="644" y1="184" x2="644" y2="216" class="solid"></line>
        <line x1="644" y1="216" x2="676" y2="216" class="solid"></line>
        <line x1="644" y1="248" x2="676" y2="248" class="solid"></line>
        <line x1="644" y1="248" x2="644" y2="280" class="solid"></line>
        <line x1="644" y1="280" x2="676" y2="280" class="solid"></line>
        <line x1="644" y1="312" x2="676" y2="312" class="solid"></line>
        <line x1="644" y1="312" x2="644" y2="344" class="solid"></line>
        <line x1="644" y1="344" x2="676" y2="344" class="solid"></line>
        <line x1="676" y1="360" x2="796" y2="360" class="solid"></line>
    </g>
    <g>
        <line x1="540" y1="136" x2="632" y2="136" class="solid"></line>
        <line x1="540" y1="136" x2="540" y2="184" class="solid"></line>
        <line x1="228" y1="152" x2="420" y2="152" class="solid"></line>
        <line x1="228" y1="152" x2="228" y2="296" class="solid"></line>
        <line x1="420" y1="152" x2="420" y2="296" class="solid"></line>
        <line x1="420" y1="168" x2="452" y2="168" class="solid"></line>
        <line x1="452" y1="168" x2="452" y2="200" class="solid"></line>
        <line x1="452" y1="184" x2="540" y2="184" class="solid"></line>
        <line x1="420" y1="200" x2="452" y2="200" class="solid"></line>
        <line x1="212" y1="232" x2="228" y2="232" class="solid"></line>
        <line x1="212" y1="232" x2="212" y2="296" class="solid"></line>
        <line x1="420" y1="232" x2="452" y2="232" class="solid"></line>
        <line x1="452" y1="232" x2="452" y2="264" class="solid"></line>
        <line x1="420" y1="264" x2="452" y2="264" class="solid"></line>
        <line x1="212" y1="296" x2="420" y2="296" class="solid"></line>
    </g>
    <g>
        <line x1="52" y1="216" x2="76" y2="216" class="solid"></line>
        <line x1="52" y1="216" x2="52" y2="264" class="solid"></line>
        <line x1="76" y1="216" x2="76" y2="264" class="solid"></line>
        <line x1="76" y1="232" x2="148" y2="232" class="solid"></line>
        <line x1="148" y1="232" x2="148" y2="264" class="solid"></line>
        <line x1="52" y1="264" x2="76" y2="264" class="solid"></line>
        <line x1="148" y1="264" x2="200" y2="264" class="solid"></line>
    </g>
</svg>