<svg xmlns="http://www.w3.org/2000/svg" width="632" height="224">
    <style>line, path, circle,rect,polygon {
                          stroke: black;
                          stroke-width: 2;
                          stroke-opacity: 1;
                          fill-opacity: 1;
                          stroke-linecap: round;
                          stroke-linejoin: miter;
                        }

                    text {
                        /* This fix the spacing bug in svg text*/
                        white-space: pre;
                        fill: black;
                        }
                        rect.backdrop{
                            stroke: none;
                            fill: white;
                        }
                        .broken{
                            stroke-dasharray: 8;
                        }
                        .filled{
                            fill: black;
                        }
                        .bg_filled{
                            fill: white;
                        }
                        .nofill{
                            fill: white;
                        }

                        text {
                         font-family: monospace;
                         font-size: 14px;
                        }

                        .end_marked_arrow{
                            marker-end: url(#arrow);
                         }
                        .start_marked_arrow{
                            marker-start: url(#arrow);
                         }

                        .end_marked_diamond{
                            marker-end: url(#diamond);
                         }
                        .start_marked_diamond{
                            marker-start: url(#diamond);
                         }

                        .end_marked_circle{
                            marker-end: url(#circle);
                         }
                        .start_marked_circle{
                            marker-start: url(#circle);
                         }

                        .end_marked_open_circle{
                            marker-end: url(#open_circle);
                         }
                        .start_marked_open_circle{
                            marker-start: url(#open_circle);
                         }

                        .end_marked_big_open_circle{
                            marker-end: url(#big_open_circle);
                         }
                        .start_marked_big_open_circle{
                            marker-start: url(#big_open_circle);
                         }

                         
                        </style>
    <defs>
        <marker id="arrow" viewBox="-2 -2 8 8" refX="4" refY="2" markerWidth="7" markerHeight="7" orient="auto-start-reverse">
            <polygon points="0,0 0,4 4,2 0,0"></polygon>
        </marker>
        <marker id="diamond" viewBox="-2 -2 8 8" refX="4" refY="2" markerWidth="7" markerHeight="7" orient="auto-start-reverse">
            <polygon points="0,2 2,0 4,2 2,4 0,2"></polygon>
        </marker>
        <marker id="circle" viewBox="0 0 8 8" refX="4" refY="4" markerWidth="7" markerHeight="7" orient="auto-start-reverse">
            <circle cx="4" cy="4" r="2" class="filled"></circle>
        </marker>
        <marker id="open_circle" viewBox="0 0 8 8" refX="4" refY="4" markerWidth="7" markerHeight="7" orient="auto-start-reverse">
            <circle cx="4" cy="4" r="2" class="bg_filled"></circle>
        </marker>
        <marker id="big_open_circle" viewBox="0 0 8 8" refX="4" refY="4" markerWidth="7" markerHeight="7" orient="auto-start-reverse">
            <circle cx="4" cy="4" r="3" class="bg_filled"></circle>
        </marker>
    </defs>
    <rect x="332" y="24" width="32" height="32" class="solid nofill" rx="0"></rect>
    <rect x="516" y="152" width="104" height="32" class="solid nofill" rx="0"></rect>
    <text x="594" y="172" >8K</text>
    <text x="170" y="28" >Blackmagic</text>
    <text x="170" y="44" >Raw</text>
    <text x="202" y="44" >Encoder</text>
    <text x="170" y="76" >▲</text>
    <line x1="0" y1="104" x2="40" y2="104" class="solid"></line>
    <text x="42" y="108" >►Raw</text>
    <text x="66" y="124" >Data</text>
    <text x="170" y="140" >▼</text>
    <text x="162" y="172" >BlackmagicFilm</text>
    <text x="338" y="172" >HDMI</text>
    <text x="378" y="172" >YCbCr</text>
    <text x="170" y="188" >to</text>
    <text x="194" y="188" >sRGB</text>
    <text x="234" y="188" >LUT</text>
    <text x="386" y="188" >Encoder</text>
    <g>
        <line x1="156" y1="8" x2="268" y2="8" class="solid"></line>
        <line x1="156" y1="8" x2="156" y2="56" class="solid"></line>
        <line x1="268" y1="8" x2="268" y2="56" class="solid"></line>
        <line x1="268" y1="40" x2="320" y2="40" class="solid"></line>
        <line x1="156" y1="56" x2="268" y2="56" class="solid"></line>
    </g>
    <g>
        <text x="322" y="44">►</text>
        <text x="338" y="44">SSD</text>
    </g>
    <g>
        <line x1="52" y1="88" x2="108" y2="88" class="solid"></line>
        <line x1="52" y1="88" x2="52" y2="136" class="solid"></line>
        <line x1="108" y1="88" x2="108" y2="136" class="solid"></line>
        <line x1="52" y1="136" x2="108" y2="136" class="solid"></line>
        <line x1="172" y1="80" x2="172" y2="128" class="solid"></line>
        <line x1="108" y1="104" x2="172" y2="104" class="solid"></line>
    </g>
    <g>
        <line x1="156" y1="152" x2="276" y2="152" class="solid"></line>
        <line x1="156" y1="152" x2="156" y2="200" class="solid"></line>
        <line x1="276" y1="152" x2="276" y2="200" class="solid"></line>
        <line x1="276" y1="184" x2="320" y2="184" class="solid"></line>
        <line x1="156" y1="200" x2="276" y2="200" class="solid"></line>
    </g>
    <g>
        <line x1="332" y1="152" x2="444" y2="152" class="solid"></line>
        <line x1="332" y1="152" x2="332" y2="200" class="solid"></line>
        <line x1="444" y1="152" x2="444" y2="200" class="solid"></line>
        <line x1="444" y1="168" x2="504" y2="168" class="solid"></line>
        <line x1="332" y1="200" x2="444" y2="200" class="solid"></line>
    </g>
    <g>
        <text x="506" y="172">►</text>
        <text x="522" y="172">Decklink</text>
    </g>
    <g>
        <text x="322" y="188">►</text>
        <text x="338" y="188">4:2:2</text>
    </g>
</svg>